<svg width="59" height="20" viewBox="0 0 59 20" fill="none" xmlns="http://www.w3.org/2000/svg">
<path d="M12.88 15.736H4.732L3.332 19.712H0L6.972 0.224001H10.668L17.64 19.712H14.28L12.88 15.736ZM11.984 13.132L8.82 4.088L5.628 13.132H11.984ZM21.0074 9.94C21.0074 8.036 21.4461 6.328 22.3234 4.816C23.2194 3.304 24.4234 2.128 25.9354 1.288C27.4661 0.429334 29.1367 0 30.9474 0C33.0194 0 34.8581 0.513334 36.4634 1.54C38.0874 2.548 39.2634 3.98533 39.9914 5.852H36.1554C35.6514 4.82533 34.9514 4.06 34.0554 3.556C33.1594 3.052 32.1234 2.8 30.9474 2.8C29.6594 2.8 28.5114 3.08933 27.5034 3.668C26.4954 4.24667 25.7021 5.07733 25.1234 6.16C24.5634 7.24267 24.2834 8.50267 24.2834 9.94C24.2834 11.3773 24.5634 12.6373 25.1234 13.72C25.7021 14.8027 26.4954 15.6427 27.5034 16.24C28.5114 16.8187 29.6594 17.108 30.9474 17.108C32.1234 17.108 33.1594 16.856 34.0554 16.352C34.9514 15.848 35.6514 15.0827 36.1554 14.056H39.9914C39.2634 15.9227 38.0874 17.36 36.4634 18.368C34.8581 19.376 33.0194 19.88 30.9474 19.88C29.1181 19.88 27.4474 19.46 25.9354 18.62C24.4234 17.7613 23.2194 16.576 22.3234 15.064C21.4461 13.552 21.0074 11.844 21.0074 9.94ZM58.7357 6.048C58.7357 7.03733 58.5023 7.97067 58.0357 8.848C57.569 9.7253 56.8223 10.444 55.7957 11.004C54.769 11.5453 53.453 11.816 51.8477 11.816H48.3197V19.712H45.1277V0.252001H51.8477C53.341 0.252001 54.601 0.513334 55.6277 1.036C56.673 1.54 57.4477 2.23067 57.9517 3.108C58.4743 3.98533 58.7357 4.96533 58.7357 6.048ZM51.8477 9.212C53.061 9.212 53.9663 8.94133 54.5637 8.4C55.161 7.84 55.4597 7.056 55.4597 6.048C55.4597 3.92 54.2557 2.856 51.8477 2.856H48.3197V9.212H51.8477Z" fill="#FA8C16"/>
</svg>
