<svg width="50" height="20" viewBox="0 0 50 20" fill="none" xmlns="http://www.w3.org/2000/svg">
<path d="M3.192 2.604V8.316H9.91203V10.92H3.192V16.884H10.752V19.488H0V0H10.752V2.604H3.192ZM26.4996 9.492C27.5449 9.6787 28.4316 10.2293 29.1596 11.144C29.8876 12.0587 30.2516 13.0947 30.2516 14.252C30.2516 15.2413 29.9902 16.1373 29.4676 16.94C28.9636 17.724 28.2262 18.3493 27.2556 18.816C26.2849 19.264 25.1556 19.488 23.8676 19.488H16.0836V0.028H23.5036C24.8289 0.028 25.9676 0.252 26.9196 0.700001C27.8716 1.148 28.5902 1.75467 29.0756 2.52C29.5609 3.26667 29.8036 4.10667 29.8036 5.04C29.8036 6.16 29.5049 7.09333 28.9076 7.84C28.3102 8.58667 27.5076 9.13733 26.4996 9.492ZM19.2756 8.204H23.2236C24.2689 8.204 25.0809 7.97067 25.6596 7.504C26.2569 7.01867 26.5556 6.328 26.5556 5.432C26.5556 4.55467 26.2569 3.87333 25.6596 3.388C25.0809 2.884 24.2689 2.632 23.2236 2.632H19.2756V8.204ZM23.5876 16.884C24.6702 16.884 25.5196 16.6227 26.1356 16.1C26.7516 15.5773 27.0596 14.8493 27.0596 13.916C27.0596 12.964 26.7329 12.208 26.0796 11.648C25.4262 11.088 24.5582 10.808 23.4756 10.808H19.2756V16.884H23.5876ZM45.5363 9.492C46.5816 9.6787 47.4683 10.2293 48.1963 11.144C48.9243 12.0587 49.2883 13.0947 49.2883 14.252C49.2883 15.2413 49.0269 16.1373 48.5043 16.94C48.0003 17.724 47.2629 18.3493 46.2923 18.816C45.3216 19.264 44.1923 19.488 42.9043 19.488H35.1203V0.028H42.5403C43.8656 0.028 45.0043 0.252 45.9563 0.700001C46.9083 1.148 47.6269 1.75467 48.1123 2.52C48.5976 3.26667 48.8403 4.10667 48.8403 5.04C48.8403 6.16 48.5416 7.09333 47.9443 7.84C47.3469 8.58667 46.5443 9.13733 45.5363 9.492ZM38.3123 8.204H42.2603C43.3056 8.204 44.1176 7.97067 44.6963 7.504C45.2936 7.01867 45.5923 6.328 45.5923 5.432C45.5923 4.55467 45.2936 3.87333 44.6963 3.388C44.1176 2.884 43.3056 2.632 42.2603 2.632H38.3123V8.204ZM42.6243 16.884C43.7069 16.884 44.5563 16.6227 45.1723 16.1C45.7883 15.5773 46.0963 14.8493 46.0963 13.916C46.0963 12.964 45.7696 12.208 45.1163 11.648C44.4629 11.088 43.5949 10.808 42.5123 10.808H38.3123V16.884H42.6243Z" fill="#FA8C16"/>
</svg>
