<svg width="60" height="21" viewBox="0 0 60 21" fill="none" xmlns="http://www.w3.org/2000/svg">
<path d="M13.2 16.024H5.05197L3.65197 20H0.31997L7.29197 0.511999H10.988L17.96 20H14.6L13.2 16.024ZM12.304 13.42L9.13997 4.376L5.94797 13.42H12.304ZM21.3274 10.228C21.3274 8.324 21.7661 6.616 22.6434 5.104C23.5394 3.592 24.7434 2.416 26.2554 1.576C27.7861 0.717332 29.4567 0.287998 31.2674 0.287998C33.3394 0.287998 35.1781 0.801332 36.7834 1.828C38.4074 2.836 39.5834 4.27333 40.3114 6.14H36.4754C35.9714 5.11333 35.2714 4.348 34.3754 3.844C33.4794 3.34 32.4434 3.088 31.2674 3.088C29.9794 3.088 28.8314 3.37733 27.8234 3.956C26.8154 4.53467 26.0221 5.36533 25.4434 6.448C24.8834 7.53067 24.6034 8.79067 24.6034 10.228C24.6034 11.6653 24.8834 12.9253 25.4434 14.008C26.0221 15.0907 26.8154 15.9307 27.8234 16.528C28.8314 17.1067 29.9794 17.396 31.2674 17.396C32.4434 17.396 33.4794 17.144 34.3754 16.64C35.2714 16.136 35.9714 15.3707 36.4754 14.344H40.3114C39.5834 16.2107 38.4074 17.648 36.7834 18.656C35.1781 19.664 33.3394 20.168 31.2674 20.168C29.4381 20.168 27.7674 19.748 26.2554 18.908C24.7434 18.0493 23.5394 16.864 22.6434 15.352C21.7661 13.84 21.3274 12.132 21.3274 10.228ZM59.0557 6.336C59.0557 7.32533 58.8223 8.25867 58.3557 9.136C57.889 10.0133 57.1423 10.732 56.1157 11.292C55.089 11.8333 53.773 12.104 52.1677 12.104H48.6397V20H45.4477V0.539999H52.1677C53.661 0.539999 54.921 0.801332 55.9477 1.324C56.993 1.828 57.7677 2.51867 58.2717 3.396C58.7943 4.27333 59.0557 5.25333 59.0557 6.336ZM52.1677 9.5C53.381 9.5 54.2863 9.22933 54.8837 8.688C55.481 8.128 55.7797 7.344 55.7797 6.336C55.7797 4.208 54.5757 3.144 52.1677 3.144H48.6397V9.5H52.1677Z" fill="#52C41A"/>
</svg>
