<svg width="50" height="20" viewBox="0 0 50 20" fill="none" xmlns="http://www.w3.org/2000/svg">
<path d="M3.53497 3.116V8.828H10.255V11.432H3.53497V17.396H11.095V20H0.34297V0.511999H11.095V3.116H3.53497ZM26.8426 10.004C27.8879 10.1907 28.7746 10.7413 29.5026 11.656C30.2306 12.5707 30.5946 13.6067 30.5946 14.764C30.5946 15.7533 30.3332 16.6493 29.8106 17.452C29.3066 18.236 28.5692 18.8613 27.5986 19.328C26.6279 19.776 25.4986 20 24.2106 20H16.4266V0.539999H23.8466C25.1719 0.539999 26.3106 0.763999 27.2626 1.212C28.2146 1.66 28.9332 2.26667 29.4186 3.032C29.9039 3.77867 30.1466 4.61867 30.1466 5.552C30.1466 6.672 29.8479 7.60533 29.2506 8.352C28.6532 9.09867 27.8506 9.64933 26.8426 10.004ZM19.6186 8.716H23.5666C24.6119 8.716 25.4239 8.48267 26.0026 8.016C26.5999 7.53067 26.8986 6.84 26.8986 5.944C26.8986 5.06667 26.5999 4.38533 26.0026 3.9C25.4239 3.396 24.6119 3.144 23.5666 3.144H19.6186V8.716ZM23.9306 17.396C25.0132 17.396 25.8626 17.1347 26.4786 16.612C27.0946 16.0893 27.4026 15.3613 27.4026 14.428C27.4026 13.476 27.0759 12.72 26.4226 12.16C25.7692 11.6 24.9012 11.32 23.8186 11.32H19.6186V17.396H23.9306ZM45.8793 10.004C46.9246 10.1907 47.8113 10.7413 48.5393 11.656C49.2673 12.5707 49.6313 13.6067 49.6313 14.764C49.6313 15.7533 49.3699 16.6493 48.8473 17.452C48.3433 18.236 47.6059 18.8613 46.6353 19.328C45.6646 19.776 44.5353 20 43.2473 20H35.4633V0.539999H42.8833C44.2086 0.539999 45.3473 0.763999 46.2993 1.212C47.2513 1.66 47.9699 2.26667 48.4553 3.032C48.9406 3.77867 49.1833 4.61867 49.1833 5.552C49.1833 6.672 48.8846 7.60533 48.2873 8.352C47.6899 9.09867 46.8873 9.64933 45.8793 10.004ZM38.6553 8.716H42.6033C43.6486 8.716 44.4606 8.48267 45.0393 8.016C45.6366 7.53067 45.9353 6.84 45.9353 5.944C45.9353 5.06667 45.6366 4.38533 45.0393 3.9C44.4606 3.396 43.6486 3.144 42.6033 3.144H38.6553V8.716ZM42.9673 17.396C44.0499 17.396 44.8993 17.1347 45.5153 16.612C46.1313 16.0893 46.4393 15.3613 46.4393 14.428C46.4393 13.476 46.1126 12.72 45.4593 12.16C44.8059 11.6 43.9379 11.32 42.8553 11.32H38.6553V17.396H42.9673Z" fill="#52C41A"/>
</svg>
